<?xml version="1.0" encoding="UTF-8" standalone="no"?>
<!-- Created with Inkscape (http://www.inkscape.org/) -->

<svg
   xmlns:dc="http://purl.org/dc/elements/1.1/"
   xmlns:cc="http://creativecommons.org/ns#"
   xmlns:rdf="http://www.w3.org/1999/02/22-rdf-syntax-ns#"
   xmlns:svg="http://www.w3.org/2000/svg"
   xmlns="http://www.w3.org/2000/svg"
   xmlns:sodipodi="http://sodipodi.sourceforge.net/DTD/sodipodi-0.dtd"
   xmlns:inkscape="http://www.inkscape.org/namespaces/inkscape"
   width="150mm"
   height="150mm"
   viewBox="0 0 150 150"
   version="1.1"
   id="svg8"
   inkscape:version="0.92.5 (2060ec1f9f, 2020-04-08)"
   sodipodi:docname="energiezicht.svg">
  <defs
     id="defs2" />
  <sodipodi:namedview
     id="base"
     pagecolor="#ffffff"
     bordercolor="#666666"
     borderopacity="1.0"
     inkscape:pageopacity="0.0"
     inkscape:pageshadow="2"
     inkscape:zoom="0.24748737"
     inkscape:cx="1293.5484"
     inkscape:cy="445.06288"
     inkscape:document-units="mm"
     inkscape:current-layer="layer1"
     showgrid="false"
     inkscape:window-width="2560"
     inkscape:window-height="1308"
     inkscape:window-x="0"
     inkscape:window-y="27"
     inkscape:window-maximized="1" />
  <metadata
     id="metadata5">
    <rdf:RDF>
      <cc:Work
         rdf:about="">
        <dc:format>image/svg+xml</dc:format>
        <dc:type
           rdf:resource="http://purl.org/dc/dcmitype/StillImage" />
        <dc:title></dc:title>
      </cc:Work>
    </rdf:RDF>
  </metadata>
  <g
     inkscape:label="Layer 1"
     inkscape:groupmode="layer"
     id="layer1"
     transform="translate(-27.107193,-73.779755)">
    <circle
       id="path3717"
       style="fill:#37c8ab;stroke-width:0.3968752"
       cy="148.77975"
       cx="102.10719"
       r="75" />
    <path
       style="fill:#ffffff;fill-opacity:0;stroke-width:2.85714293"
       d="M 349.42857,842.3662 C 220.05954,825.1448 115.94829,716.921 105.64721,588.95509 98.605496,501.479 126.08842,424.90838 186.53812,363.58358 c 36.83205,-37.36524 78.60687,-61.30968 129.47853,-74.21433 150.39855,-38.15173 300.97441,50.00034 342.54969,200.53989 6.90237,24.99269 7.82829,33.36656 7.87075,71.18197 0.0577,51.36423 -5.80392,79.01863 -25.61143,120.83275 -16.12346,34.03697 -32.35135,56.67648 -58.9424,82.23057 -37.92915,36.45008 -77.92589,58.91123 -127.12963,71.39277 -30.88643,7.835 -75.83297,10.74494 -105.32506,6.819 z"
       id="path3729"
       inkscape:connector-curvature="0"
       transform="scale(0.26458333)" />
    <path
       style="fill:#ffffff;fill-opacity:0;stroke-width:2.85714293"
       d="M 349.42857,842.3662 C 220.05954,825.1448 115.94829,716.921 105.64721,588.95509 98.605496,501.479 126.08842,424.90838 186.53812,363.58358 c 36.83205,-37.36524 78.60687,-61.30968 129.47853,-74.21433 150.39855,-38.15173 300.97441,50.00034 342.54969,200.53989 6.90237,24.99269 7.82829,33.36656 7.87075,71.18197 0.0577,51.36423 -5.80392,79.01863 -25.61143,120.83275 -16.12346,34.03697 -32.35135,56.67648 -58.9424,82.23057 -37.92915,36.45008 -77.92589,58.91123 -127.12963,71.39277 -30.88643,7.835 -75.83297,10.74494 -105.32506,6.819 z"
       id="path3731"
       inkscape:connector-curvature="0"
       transform="scale(0.26458333)" />
    <path
       style="fill:#ffffff;fill-opacity:0;stroke-width:2.85714293"
       d="M 349.42857,842.3662 C 220.05954,825.1448 115.94829,716.921 105.64721,588.95509 98.605496,501.479 126.08842,424.90838 186.53812,363.58358 c 36.83205,-37.36524 78.60687,-61.30968 129.47853,-74.21433 150.39855,-38.15173 300.97441,50.00034 342.54969,200.53989 6.90237,24.99269 7.82829,33.36656 7.87075,71.18197 0.0577,51.36423 -5.80392,79.01863 -25.61143,120.83275 -16.12346,34.03697 -32.35135,56.67648 -58.9424,82.23057 -37.92915,36.45008 -77.92589,58.91123 -127.12963,71.39277 -30.88643,7.835 -75.83297,10.74494 -105.32506,6.819 z"
       id="path3733"
       inkscape:connector-curvature="0"
       transform="scale(0.26458333)" />
    <path
       style="fill:#ffffff;fill-opacity:0;stroke-width:2.85714293"
       d="M 349.42857,842.3662 C 220.05954,825.1448 115.94829,716.921 105.64721,588.95509 98.605496,501.479 126.08842,424.90838 186.53812,363.58358 c 36.83205,-37.36524 78.60687,-61.30968 129.47853,-74.21433 150.39855,-38.15173 300.97441,50.00034 342.54969,200.53989 6.90237,24.99269 7.82829,33.36656 7.87075,71.18197 0.0577,51.36423 -5.80392,79.01863 -25.61143,120.83275 -16.12346,34.03697 -32.35135,56.67648 -58.9424,82.23057 -37.92915,36.45008 -77.92589,58.91123 -127.12963,71.39277 -30.88643,7.835 -75.83297,10.74494 -105.32506,6.819 z"
       id="path3735"
       inkscape:connector-curvature="0"
       transform="scale(0.26458333)" />
    <path
       style="fill:#ffffff;fill-opacity:0;stroke-width:2.85714293"
       d="M 349.42857,842.3662 C 220.05954,825.1448 115.94829,716.921 105.64721,588.95509 98.605496,501.479 126.08842,424.90838 186.53812,363.58358 c 36.83205,-37.36524 78.60687,-61.30968 129.47853,-74.21433 150.39855,-38.15173 300.97441,50.00034 342.54969,200.53989 6.90237,24.99269 7.82829,33.36656 7.87075,71.18197 0.0577,51.36423 -5.80392,79.01863 -25.61143,120.83275 -16.12346,34.03697 -32.35135,56.67648 -58.9424,82.23057 -37.92915,36.45008 -77.92589,58.91123 -127.12963,71.39277 -30.88643,7.835 -75.83297,10.74494 -105.32506,6.819 z"
       id="path3737"
       inkscape:connector-curvature="0"
       transform="scale(0.26458333)" />
    <rect
       style="fill:#ffffff;fill-opacity:1;stroke-width:0.14202607"
       id="rect3739"
       width="11.53992"
       height="23.372812"
       x="70.344727"
       y="153.48305" />
    <rect
       style="fill:#ffffff;fill-opacity:1;stroke-width:0.25267941"
       id="rect3739-3"
       width="11.539921"
       height="73.980034"
       x="85.567673"
       y="102.87583" />
    <rect
       style="fill:#ffffff;fill-opacity:1;stroke-width:0.22042407"
       id="rect3739-6"
       width="11.539921"
       height="56.297993"
       x="100.79062"
       y="120.55789" />
    <rect
       style="fill:#ffffff;fill-opacity:1;stroke-width:0.18110898"
       id="rect3739-7"
       width="11.539921"
       height="38.006222"
       x="116.01356"
       y="138.84964" />
    <rect
       style="fill:#ffffff;fill-opacity:1;stroke-width:0.21231748"
       id="rect3739-5"
       width="11.539921"
       height="52.233158"
       x="131.23653"
       y="124.62273" />
    <rect
       style="fill:#ffffff;fill-opacity:1;stroke-width:0.21809043"
       id="rect4620"
       width="5.7983084"
       height="80.512726"
       x="59.630352"
       y="101.89915" />
    <rect
       style="fill:#ffffff;fill-opacity:1;stroke-width:0.23099393"
       id="rect4620-2"
       width="5.8854332"
       height="88.984695"
       x="181.88271"
       y="-148.61505"
       transform="rotate(90)" />
  </g>
</svg>
